<?xml version="1.0" encoding="UTF-8"?>
<!DOCTYPE svg PUBLIC "-//W3C//DTD SVG 1.1//EN" "http://www.w3.org/Graphics/SVG/1.1/DTD/svg11.dtd">
<!-- Creator: CorelDRAW -->
<svg xmlns="http://www.w3.org/2000/svg" xml:space="preserve" width="300px" height="300px" style="shape-rendering:geometricPrecision; text-rendering:geometricPrecision; image-rendering:optimizeQuality; fill-rule:evenodd; clip-rule:evenodd"
viewBox="0 0 453.846 453.846"
 xmlns:xlink="http://www.w3.org/1999/xlink">
 <defs>
  <style type="text/css">
   <![CDATA[
    .fil0 {fill:none}
    .fil2 {fill:#01C236}
    .fil1 {fill:#535353}
    .fil4 {fill:#dbd820}
    .fil3 {fill:#F5453B}
   ]]>
  </style>
 </defs>
 <g id="Слой_x0020_1">
  <metadata id="CorelCorpID_0Corel-Layer"/>
  <circle class="fil0" transform="matrix(342.269 -0.231452 -0.231452 -342.269 226.923 226.923)" r="0.662996"/>
  <rect class="fil1" transform="matrix(35.2364 -4.48578 -4.48578 -35.2364 242.44 450.52)" width="0.594032" height="0.255614" rx="0.0344303" ry="0.0344303"/>
  <rect class="fil1" transform="matrix(33.2506 -12.4948 -12.4948 -33.2506 293.492 440.937)" width="0.594032" height="0.255614" rx="0.0344303" ry="0.0344303"/>
  <rect class="fil1" transform="matrix(29.4705 -19.8295 -19.8295 -29.4705 341.077 419.802)" width="0.594032" height="0.255614" rx="0.0344303" ry="0.0344303"/>
  <rect class="fil1" transform="matrix(24.1001 -26.0942 -26.0942 -24.1001 382.502 388.259)" width="0.594032" height="0.255614" rx="0.0344303" ry="0.0344303"/>
  <rect class="fil1" transform="matrix(17.4291 -30.9507 -30.9507 -17.4291 415.531 348.008)" width="0.594032" height="0.255614" rx="0.0344303" ry="0.0344303"/>
  <rect class="fil1" transform="matrix(9.81764 -34.137 -34.137 -9.81764 438.382 301.223)" width="0.594032" height="0.255614" rx="0.0344303" ry="0.0344303"/>
  <rect class="fil1" transform="matrix(1.67633 -35.4812 -35.4812 -1.67633 449.821 250.427)" width="0.594032" height="0.255614" rx="0.0344303" ry="0.0344303"/>
  <rect class="fil1" transform="matrix(-6.55544 -34.9106 -34.9106 6.55544 449.232 198.363)" width="0.594032" height="0.255614" rx="0.0344303" ry="0.0344303"/>
  <rect class="fil1" transform="matrix(-14.4334 -32.4561 -32.4561 14.4334 436.646 147.84)" width="0.594032" height="0.255614" rx="0.0344303" ry="0.0344303"/>
  <rect class="fil1" transform="matrix(-21.5326 -28.2502 -28.2502 21.5326 412.743 101.583)" width="0.594032" height="0.255614" rx="0.0344303" ry="0.0344303"/>
  <rect class="fil1" transform="matrix(-27.4697 -22.5197 -22.5197 27.4697 378.812 62.0901)" width="0.594032" height="0.255614" rx="0.0344303" ry="0.0344303"/>
  <rect class="fil1" transform="matrix(-31.9245 -15.574 -15.574 31.9245 336.684 31.4916)" width="0.594032" height="0.255614" rx="0.0344303" ry="0.0344303"/>
  <rect class="fil1" transform="matrix(-34.6565 -7.78791 -7.78791 34.6565 288.632 11.4388)" width="0.594032" height="0.255614" rx="0.0344303" ry="0.0344303"/>
  <rect class="fil2" transform="matrix(-35.5183 0.41848 0.41848 35.5183 237.251 3.01394)" width="0.594032" height="0.255614" rx="0.0344303" ry="0.0344303"/>
  <rect class="fil1" transform="matrix(-34.4634 8.60229 8.60229 34.4634 185.312 6.67157)" width="0.594032" height="0.255614" rx="0.0344303" ry="0.0344303"/>
  <rect class="fil1" transform="matrix(-31.5487 16.3219 16.3219 31.5487 135.618 22.2143)" width="0.594032" height="0.255614" rx="0.0344303" ry="0.0344303"/>
  <rect class="fil1" transform="matrix(-26.9315 23.1607 23.1607 26.9315 90.8518 48.8035)" width="0.594032" height="0.255614" rx="0.0344303" ry="0.0344303"/>
  <rect class="fil1" transform="matrix(-20.861 28.7496 28.7496 20.861 53.428 85.0042)" width="0.594032" height="0.255614" rx="0.0344303" ry="0.0344303"/>
  <rect class="fil1" transform="matrix(-13.6647 32.7872 32.7872 13.6647 25.3665 128.863)" width="0.594032" height="0.255614" rx="0.0344303" ry="0.0344303"/>
  <rect class="fil1" transform="matrix(-5.73109 35.0554 35.0554 5.73109 8.18158 178.013)" width="0.594032" height="0.255614" rx="0.0344303" ry="0.0344303"/>
  <rect class="fil1" transform="matrix(2.51184 35.4318 35.4318 -2.51184 2.8007 229.802)" width="0.594032" height="0.255614" rx="0.0344303" ry="0.0344303"/>
  <rect class="fil1" transform="matrix(10.6192 33.8962 33.8962 -10.6192 9.51418 281.435)" width="0.594032" height="0.255614" rx="0.0344303" ry="0.0344303"/>
  <rect class="fil1" transform="matrix(18.1535 30.5315 30.5315 -18.1535 27.9597 330.125)" width="0.594032" height="0.255614" rx="0.0344303" ry="0.0344303"/>
  <rect class="fil1" transform="matrix(24.7082 25.5191 25.5191 -24.7082 57.142 373.246)" width="0.594032" height="0.255614" rx="0.0344303" ry="0.0344303"/>
  <g id="_134687312">
   <rect id="_134685272" class="fil3" transform="matrix(26.9678 -23.1184 -23.1184 -26.9678 362.709 405.238)" width="0.594032" height="0.255614" rx="0.0344303" ry="0.0344303"/>
   <rect id="_134679248" class="fil3" transform="matrix(20.9061 -28.7168 -28.7168 -20.9061 400.189 369.096)" width="0.594032" height="0.255614" rx="0.0344303" ry="0.0344303"/>
   <rect id="_134682224" class="fil3" transform="matrix(-10.566 -33.9129 -33.9129 10.566 444.411 172.735)" width="0.594032" height="0.255614" rx="0.0344303" ry="0.0344303"/>
   <rect id="_134684744" class="fil3" transform="matrix(-18.1056 -30.56 -30.56 18.1056 426.042 124.015)" width="0.594032" height="0.255614" rx="0.0344303" ry="0.0344303"/>
   <rect id="_134683376" class="fil3" transform="matrix(-35.3265 -3.70982 -3.70982 35.3265 263.187 5.72932)" width="0.594032" height="0.255614" rx="0.0344303" ry="0.0344303"/>
   <rect id="_134685248" class="fil3" transform="matrix(-35.2293 4.54112 4.54112 35.2293 211.175 3.32945)" width="0.594032" height="0.255614" rx="0.0344303" ry="0.0344303"/>
   <rect id="_134685608" class="fil3" transform="matrix(-17.3805 30.9781 30.9781 17.3805 38.1193 106.116)" width="0.594032" height="0.255614" rx="0.0344303" ry="0.0344303"/>
   <rect id="_134686688" class="fil3" transform="matrix(-9.764 34.1524 34.1524 9.764 15.342 152.937)" width="0.594032" height="0.255614" rx="0.0344303" ry="0.0344303"/>
   <rect id="_134686832" class="fil3" transform="matrix(21.5769 28.2163 28.2163 -21.5769 41.2945 352.536)" width="0.594032" height="0.255614" rx="0.0344303" ry="0.0344303"/>
   <rect id="_134686496" class="fil3" transform="matrix(27.5051 22.4765 22.4765 -27.5051 75.2878 391.976)" width="0.594032" height="0.255614" rx="0.0344303" ry="0.0344303"/>
  </g>
  <rect class="fil1" transform="matrix(29.9296 19.1297 19.1297 -29.9296 95.4861 408.471)" width="0.594032" height="0.255614" rx="0.0344303" ry="0.0344303"/>
  <rect class="fil1" transform="matrix(33.5358 11.7079 11.7079 -33.5358 140.923 433.898)" width="0.594032" height="0.255614" rx="0.0344303" ry="0.0344303"/>
  <rect class="fil1" transform="matrix(35.3323 3.65433 3.65433 -35.3323 191.001 448.155)" width="0.594032" height="0.255614" rx="0.0344303" ry="0.0344303"/>
  <g id="_133741232">
   <rect id="_132336424" class="fil4" transform="matrix(34.4768 -8.54814 -8.54814 -34.4768 268.182 447.221)" width="0.594032" height="0.255614" rx="0.0344303" ry="0.0344303"/>
   <g>
    <rect id="_131152320" class="fil4" transform="matrix(31.5743 -16.2723 -16.2723 -31.5743 317.9 431.756)" width="0.594032" height="0.255614" rx="0.0344303" ry="0.0344303"/>
    <rect id="_131152296" class="fil4" transform="matrix(13.7162 -32.7657 -32.7657 -13.7162 428.32 325.281)" width="0.594032" height="0.255614" rx="0.0344303" ry="0.0344303"/>
    <rect id="_131153016" class="fil4" transform="matrix(5.78615 -35.0463 -35.0463 -5.78615 445.582 276.158)" width="0.594032" height="0.255614" rx="0.0344303" ry="0.0344303"/>
    <rect id="_131152992" class="fil4" transform="matrix(-2.45618 -35.4357 -35.4357 2.45618 451.044 224.378)" width="0.594032" height="0.255614" rx="0.0344303" ry="0.0344303"/>
    <rect id="_131152680" class="fil4" transform="matrix(-24.6681 -25.5579 -25.5579 24.6681 396.928 80.848)" width="0.594032" height="0.255614" rx="0.0344303" ry="0.0344303"/>
    <rect id="_134686088" class="fil4" transform="matrix(-29.8995 -19.1767 -19.1767 29.8995 358.639 45.5634)" width="0.594032" height="0.255614" rx="0.0344303" ry="0.0344303"/>
    <rect id="_134685152" class="fil4" transform="matrix(-33.5173 -11.7606 -11.7606 33.5173 313.242 20.0652)" width="0.594032" height="0.255614" rx="0.0344303" ry="0.0344303"/>
    <rect id="_134685200" class="fil4" transform="matrix(-33.2309 12.547 12.547 33.2309 160.012 12.9951)" width="0.594032" height="0.255614" rx="0.0344303" ry="0.0344303"/>
    <rect id="_134687000" class="fil4" transform="matrix(-29.4393 19.8758 19.8758 29.4393 112.46 34.2046)" width="0.594032" height="0.255614" rx="0.0344303" ry="0.0344303"/>
    <rect id="_134686448" class="fil4" transform="matrix(-24.0591 26.132 26.132 24.0591 71.0851 65.8135)" width="0.594032" height="0.255614" rx="0.0344303" ry="0.0344303"/>
    <rect id="_134687288" class="fil4" transform="matrix(-1.6206 35.4838 35.4838 1.6206 3.98221 203.75)" width="0.594032" height="0.255614" rx="0.0344303" ry="0.0344303"/>
    <rect id="_134686016" class="fil4" transform="matrix(6.61027 34.9003 34.9003 -6.61027 4.65305 255.814)" width="0.594032" height="0.255614" rx="0.0344303" ry="0.0344303"/>
    <rect id="_134687264" class="fil4" transform="matrix(14.4844 32.4334 32.4334 -14.4844 17.3183 306.317)" width="0.594032" height="0.255614" rx="0.0344303" ry="0.0344303"/>
    <rect id="_134687096" class="fil4" transform="matrix(31.9489 15.5239 15.5239 -31.9489 117.464 422.508)" width="0.594032" height="0.255614" rx="0.0344303" ry="0.0344303"/>
    <rect id="_134685536" class="fil4" transform="matrix(34.6687 7.73346 7.73346 -34.6687 165.546 442.485)" width="0.594032" height="0.255614" rx="0.0344303" ry="0.0344303"/>
    <rect id="_134686040" class="fil4" transform="matrix(35.5176 -0.474272 -0.474272 -35.5176 216.725 450.834)" width="0.594032" height="0.255614" rx="0.0344303" ry="0.0344303"/>
   </g>
  </g>
 </g>
</svg>
